# xmcd CD database file
#
# Track frame offsets:
#	150
#	33312
#	62911
#	94336
#	122496
#	158138
#	186094
#	215707
#	240923
#
# Disc length: 3511 seconds
#
# Revision: 0
# Processed by: cddbd v1.5.2PL0 Copyright (c) Steve Scherf et al.
# Submitted via: CDex 1.51
#
DISCID=760db509
DTITLE=Jasna Bilusic - 2011 - and New Deal - Live CD1
DYEAR=2011
DGENRE=Jazz
TTITLE0=I've Got The World On A String
TTITLE1=Girl Talk
TTITLE2=Caravan
TTITLE3=Love Is Monkey-See, Monkey-Do
TTITLE4=Blue Skies
TTITLE5=Close Your Eyes
TTITLE6=Black Coffee
TTITLE7=I'm Gonna Sit Right Down And Write Myself A Letter
TTITLE8=Lover Come Back To Me
EXTD=YEAR: 2011
EXTT0=
EXTT1=
EXTT2=
EXTT3=
EXTT4=
EXTT5=
EXTT6=
EXTT7=
EXTT8=
PLAYORDER=
